<svg width="1574" height="828" viewBox="0 0 1574 828" fill="none" xmlns="http://www.w3.org/2000/svg">
<g id="logo--complete">
<g id="slogan">
<g id="pill">
<path id="background" d="M88.28 651.06C39.73 651.06 0 690.79 0 739.34C0 787.89 39.73 827.62 88.28 827.62H400.92L463.53 651.06H88.28Z" fill="#ED0656"/>
<g id="text">
<path id="i" d="M80.5601 713.43H98.3401V763.97H80.5601V713.43Z" fill="white"/>
<path id="n" d="M107.25 713.43H121.65L138.1 735.23H138.39L138.24 728.8V713.43H155.65V763.97H141.26L124.73 741.95H124.51L124.66 748.59V763.97H107.25V713.43Z" fill="white"/>
<path id="n_2" d="M164.59 713.43H178.98L195.43 735.23H195.73L195.58 728.8V713.43H212.98V763.97H198.59L182.07 741.95H181.85L181.99 748.59V763.97H164.59V713.43Z" fill="white"/>
<path id="o" d="M219.29 738.69C219.29 723.25 230.89 712.35 247.71 712.35C264.53 712.35 276.2 723.25 276.2 738.69C276.2 754.13 264.6 765.04 247.71 765.04C230.82 765.04 219.29 754.14 219.29 738.69ZM247.72 749.17C253.89 749.17 258.3 744.91 258.3 738.7C258.3 732.49 253.89 728.24 247.72 728.24C241.55 728.24 237.22 732.5 237.22 738.7C237.22 744.9 241.55 749.17 247.72 749.17Z" fill="white"/>
<path id="v" d="M275.68 713.43H294.63L299.55 729.09L303.22 741.22H303.52L307.26 729.09L312.18 713.43H331.05L312.62 763.97H294.12L275.68 713.43Z" fill="white"/>
<path id="a" d="M345.29 713.43H363.79L382.96 763.97H364.31L362.03 757.69H346.98L344.7 763.97H326.19L345.29 713.43ZM359.24 746.14L354.69 732.28H354.39L349.91 746.14H359.24Z" fill="white"/>
</g>
</g>
<g id="pill_2">
<path id="background_2" d="M479.35 651.06L416.74 827.62H877.37L939.97 651.06H479.35Z" fill="#ED0656"/>
<g id="text_2">
<path id="c" d="M496.28 738.69C496.28 723.1 507.37 712.35 523.38 712.35C538.14 712.35 548.64 720.79 550.99 734.51H533.59C532.26 730.68 528.59 728.23 524.19 728.23C518.24 728.23 514.2 732.41 514.2 738.69C514.2 744.97 518.24 749.16 524.04 749.16C528.67 749.16 532.26 746.63 533.73 742.66H551.21C549.38 756.24 538.36 765.04 523.53 765.04C507.22 765.04 496.28 754.36 496.28 738.69Z" fill="white"/>
<path id="o_2" d="M554.8 738.69C554.8 723.25 566.4 712.35 583.22 712.35C600.04 712.35 611.71 723.25 611.71 738.69C611.71 754.13 600.11 765.04 583.22 765.04C566.33 765.04 554.8 754.14 554.8 738.69ZM583.22 749.17C589.39 749.17 593.8 744.91 593.8 738.7C593.8 732.49 589.39 728.24 583.22 728.24C577.05 728.24 572.72 732.5 572.72 738.7C572.72 744.9 577.05 749.17 583.22 749.17Z" fill="white"/>
<path id="dash" d="M617.07 740.43H642.48V751.25H617.07V740.43Z" fill="white"/>
<path id="c_2" d="M647.87 738.69C647.87 723.1 658.96 712.35 674.97 712.35C689.73 712.35 700.23 720.79 702.58 734.51H685.18C683.85 730.68 680.18 728.23 675.78 728.23C669.83 728.23 665.79 732.41 665.79 738.69C665.79 744.97 669.83 749.16 675.63 749.16C680.26 749.16 683.85 746.63 685.32 742.66H702.8C700.97 756.24 689.95 765.04 675.12 765.04C658.81 765.04 647.87 754.36 647.87 738.69Z" fill="white"/>
<path id="r" d="M709.03 713.43H734.44C747.44 713.43 755.45 720.5 755.45 731.98C755.45 738.69 752.73 743.89 747.88 747.07L756.47 763.96H736.94L730.85 750.53H726.66V763.96H709.03V713.42V713.43ZM731.58 737.68C735.47 737.68 737.67 735.73 737.67 732.27C737.67 728.81 735.47 726.86 731.58 726.86H726.37V737.68H731.58Z" fill="white"/>
<path id="e" d="M763.07 713.43H800.1V726.35H780.34V732.2H798.19V744.76H780.34V750.82H800.83V763.96H763.07V713.42V713.43Z" fill="white"/>
<path id="a_2" d="M822.76 713.43H841.26L860.43 763.97H841.78L839.5 757.69H824.45L822.17 763.97H803.66L822.76 713.43ZM836.71 746.14L832.16 732.28H831.86L827.38 746.14H836.71Z" fill="white"/>
</g>
</g>
<g id="pill_3">
<path id="background_3" d="M1485.47 651.06H955.8L893.19 827.62H1485.47C1534.02 827.62 1573.75 787.9 1573.75 739.34C1573.75 690.78 1534.03 651.06 1485.47 651.06Z" fill="#ED0656"/>
<g id="text_3">
<path id="t" d="M982.73 729.24H967.82V713.43H1015.42V729.24H1000.51V763.96H982.74V729.24H982.73Z" fill="white"/>
<path id="r_2" d="M1021.84 713.43H1047.25C1060.25 713.43 1068.26 720.5 1068.26 731.98C1068.26 738.69 1065.54 743.89 1060.69 747.07L1069.28 763.96H1049.75L1043.66 750.53H1039.47V763.96H1021.84V713.42V713.43ZM1044.4 737.68C1048.29 737.68 1050.49 735.73 1050.49 732.27C1050.49 728.81 1048.29 726.86 1044.4 726.86H1039.19V737.68H1044.4Z" fill="white"/>
<path id="a_3" d="M1090.13 713.43H1108.63L1127.8 763.97H1109.15L1106.87 757.69H1091.82L1089.54 763.97H1071.03L1090.13 713.43ZM1104.08 746.14L1099.53 732.28H1099.23L1094.75 746.14H1104.08Z" fill="white"/>
<path id="n_3" d="M1132.41 713.43H1146.81L1163.26 735.23H1163.55L1163.4 728.8V713.43H1180.81V763.97H1166.42L1149.89 741.95H1149.67L1149.82 748.59V763.97H1132.41V713.43Z" fill="white"/>
<path id="s" d="M1187.12 747.37H1204.08C1204.08 750.62 1205.92 752.42 1209.22 752.42C1212.01 752.42 1213.7 751.26 1213.7 749.24C1213.7 746.79 1211.13 745.2 1205.25 744.26C1193.14 742.24 1187.48 737.12 1187.48 728.31C1187.48 718.42 1195.34 712.36 1208.27 712.36C1221.2 712.36 1229.86 719 1230.08 729.68H1213.48C1213.48 726.5 1211.72 724.77 1208.56 724.77C1205.84 724.77 1204.15 726 1204.15 727.95C1204.15 730.26 1206.28 731.56 1212.52 732.71C1225.38 735.1 1231.03 740 1231.03 748.67C1231.03 758.99 1223.03 765.05 1209.29 765.05C1195.55 765.05 1187.12 758.48 1187.12 747.37Z" fill="white"/>
<path id="f" d="M1237.54 713.43H1272.94V728.44H1255.16V736.24H1271.1V750.61H1255.16V763.96H1237.54V713.42V713.43Z" fill="white"/>
<path id="o_3" d="M1276.66 738.69C1276.66 723.25 1288.26 712.35 1305.08 712.35C1321.9 712.35 1333.57 723.25 1333.57 738.69C1333.57 754.13 1321.97 765.04 1305.08 765.04C1288.19 765.04 1276.66 754.14 1276.66 738.69ZM1305.08 749.17C1311.25 749.17 1315.65 744.91 1315.65 738.7C1315.65 732.49 1311.25 728.24 1305.08 728.24C1298.91 728.24 1294.58 732.5 1294.58 738.7C1294.58 744.9 1298.91 749.17 1305.08 749.17Z" fill="white"/>
<path id="r_3" d="M1339.89 713.43H1365.3C1378.29 713.43 1386.3 720.5 1386.3 731.98C1386.3 738.69 1383.58 743.89 1378.74 747.07L1387.33 763.96H1367.79L1361.7 750.53H1357.51V763.96H1339.89V713.42V713.43ZM1362.43 737.68C1366.32 737.68 1368.53 735.73 1368.53 732.27C1368.53 728.81 1366.32 726.86 1362.43 726.86H1357.22V737.68H1362.43Z" fill="white"/>
<path id="m" d="M1393.91 713.43H1408.3L1424.31 734.65L1440.39 713.43H1454.71V763.97H1437.38V752.35L1437.53 741.95H1437.31L1429.23 752.85H1419.39L1411.31 741.88L1411.09 741.95L1411.24 752.35V763.97H1393.91V713.43Z" fill="white"/>
<path id="a_4" d="M1478.44 713.43H1496.95L1516.12 763.97H1497.46L1495.19 757.69H1480.13L1477.86 763.97H1459.35L1478.44 713.43ZM1492.4 746.14L1487.84 732.28H1487.55L1483.07 746.14H1492.4Z" fill="white"/>
</g>
</g>
</g>
<g id="logo--simple">
<g id="year">
<path id="background_4" d="M1474.31 495.44H1158.78L1208.7 371.83H1474.32C1508.45 371.83 1536.12 399.5 1536.12 433.63C1536.12 467.76 1508.45 495.43 1474.32 495.43L1474.31 495.44Z" fill="#ED0656"/>
<g id="numbers">
<path id="2" d="M1228.96 451.24L1256.11 430.17C1258.83 428.02 1260.23 425.96 1260.23 423.24C1260.23 419.87 1258.08 417.62 1254.61 417.62C1250.96 417.62 1248.81 419.96 1248.71 424.45H1229.24C1229.71 408.35 1239.35 399.45 1255.36 399.45C1271.37 399.45 1280.83 407.88 1280.83 421.45C1280.83 428.57 1278.11 435.21 1269.13 442.24L1261.92 447.86L1262.02 448.23L1268.57 447.86H1282.05V466.4H1228.96V451.23V451.24Z" fill="white"/>
<path id="0" d="M1291.1 433.64C1291.1 412.11 1302.34 399.46 1321.44 399.46C1340.54 399.46 1351.78 412.1 1351.78 433.64C1351.78 455.18 1340.64 467.82 1321.44 467.82C1302.24 467.82 1291.1 455.18 1291.1 433.64ZM1321.43 448.9C1327.33 448.9 1330.32 443.38 1330.32 433.64C1330.32 423.9 1327.42 418.38 1321.43 418.38C1315.44 418.38 1312.54 423.81 1312.54 433.64C1312.54 443.47 1315.44 448.9 1321.43 448.9Z" fill="white"/>
<path id="2_2" d="M1359.69 451.24L1386.84 430.17C1389.56 428.02 1390.96 425.96 1390.96 423.24C1390.96 419.87 1388.81 417.62 1385.34 417.62C1381.69 417.62 1379.54 419.96 1379.44 424.45H1359.97C1360.44 408.35 1370.08 399.45 1386.09 399.45C1402.1 399.45 1411.56 407.88 1411.56 421.45C1411.56 428.57 1408.84 435.21 1399.86 442.24L1392.65 447.86L1392.75 448.23L1399.3 447.86H1412.78V466.4H1359.69V451.23V451.24Z" fill="white"/>
<path id="5" d="M1422.29 444.59H1442.7C1442.89 448.15 1445.32 450.21 1449.16 450.21C1453 450.21 1455.71 448.06 1455.71 444.59C1455.71 441.12 1453.18 438.97 1449.16 438.97H1423.04L1426.97 400.86H1472.38V418.09H1444.85L1444.2 424.36H1454.12C1467.23 424.36 1476.31 433.07 1476.31 445.71C1476.31 459.29 1466.1 467.81 1449.81 467.81C1433.52 467.81 1422.84 459.38 1422.28 444.59H1422.29Z" fill="white"/>
</g>
</g>
<g id="academy">
<path id="a_5" d="M103.66 334.11H160.61L219.6 492.32H162.19L155.18 472.66H108.85L101.84 492.32H44.8901L103.65 334.11H103.66ZM146.6 436.49L132.59 393.1H131.69L117.9 436.49H146.6Z" fill="white"/>
<path id="c_3" d="M218.7 432.2C218.7 394.68 247.41 368.69 288.76 368.69C326.73 368.69 353.85 389.71 358.15 422.71H310.46C306.39 414.58 299.16 410.28 289.89 410.28C277.23 410.28 268.87 419.09 268.87 432.2C268.87 445.31 277.23 453.9 289.89 453.9C299.83 453.9 307.52 448.7 310.91 439.89H358.83C354.54 474.02 327.41 495.72 288.77 495.72C247.18 495.72 218.71 469.73 218.71 432.21L218.7 432.2Z" fill="white"/>
<path id="a_6" d="M368.55 457.51C368.55 435.36 384.37 420.67 409.46 420.67H447.88V413.44C447.88 407.34 442.23 402.82 434.77 402.82C427.76 402.82 422.56 406.89 421.89 412.76H374.43C378.05 383.83 399.06 368.69 435 368.69C475.68 368.69 498.06 388.13 498.06 424.29V492.32H461.22L456.02 479.21C445.85 489.61 431.38 495.26 413.98 495.26C385.96 495.26 368.55 480.8 368.55 457.52V457.51ZM430.48 463.39C441.1 463.39 448.56 456.61 448.56 445.99V444.41H430.48C422.8 444.41 417.82 448.03 417.82 453.9C417.82 459.77 422.79 463.39 430.48 463.39Z" fill="white"/>
<path id="d" d="M511.85 432.2C511.85 394.45 536.71 368.69 572.88 368.69C584.63 368.69 595.25 371.4 604.07 376.37V325.06H655.6V492.31H618.76L614.24 480.56C603.84 490.05 589.61 495.48 572.88 495.48C536.72 495.48 511.85 469.94 511.85 432.2ZM583.72 453.89C596.6 453.89 605.42 445.07 605.42 432.19C605.42 419.31 596.6 410.27 583.72 410.27C570.84 410.27 562.02 419.08 562.02 432.19C562.02 445.3 570.83 453.89 583.72 453.89Z" fill="white"/>
<path id="e_2" d="M671.64 432.2C671.64 394.45 700.34 368.69 741.7 368.69C786.68 368.69 814.02 398.07 811.54 443.28H721.59C724.3 454.58 732.66 459.55 742.83 459.55C750.29 459.55 757.29 456.84 761.14 452.32H809.51C799.57 479.89 774.48 495.71 741.25 495.71C699.89 495.71 671.64 469.72 671.64 432.2ZM763.18 419.54C760.24 410.05 753.24 404.4 742.61 404.4C731.98 404.4 724.76 409.37 721.82 419.54H763.18Z" fill="white"/>
<path id="m_2" d="M827.59 371.85H864.2L868.95 384.06C878.22 374.12 891.33 368.69 906.7 368.69C922.97 368.69 936.53 374.79 945.12 386.32C954.61 375.02 968.85 368.69 986.71 368.69C1016.77 368.69 1036.66 388.58 1036.66 420.22V492.32H985.13V426.55C985.13 416.15 979.93 410.05 971.12 410.05C962.31 410.05 957.11 416.15 957.11 426.77V492.31H907.16V426.54C907.16 416.14 901.96 410.04 893.15 410.04C884.34 410.04 879.14 416.14 879.14 426.76V492.3H827.61V371.83L827.59 371.85Z" fill="white"/>
<path id="y" d="M1057.69 497.74H1074.64C1084.13 497.74 1088.2 495.03 1090.91 488.47L1040.96 371.85H1097.01L1107.86 405.07L1116.22 431.29H1116.9L1124.13 405.07L1133.85 371.85H1188.77L1137.24 502.49C1126.39 530.97 1112.83 539.33 1079.38 539.33H1057.68V497.74H1057.69Z" fill="white"/>
</g>
<g id="jalisco">
<path id="j" d="M54.8501 230.36H100.49C129.34 230.36 141.83 217.87 141.83 187.73V9.45996H228.81V194.62C228.81 270.84 185.75 310.88 107.81 310.88H54.8401V230.36H54.8501Z" fill="white"/>
<path id="a_7" d="M258.27 244.14C258.27 202.37 288.41 174.38 335.35 174.38H412V161.46C412 146.39 397.36 135.62 378.84 135.62C362.05 135.62 349.13 144.66 346.97 158.01H269.46C276.35 105.48 314.67 76.6299 378.4 76.6299C451.6 76.6299 492.51 113.23 492.51 178.25V310.88H433.09L424.05 285.91C404.67 305.29 377.11 316.05 344.39 316.05C291.86 316.05 258.27 288.49 258.27 244.14ZM368.94 261.37C393.92 261.37 412.86 244.58 412.86 219.6H368.08C350.42 219.6 339.23 227.35 339.23 240.27C339.23 253.19 351.29 261.37 368.94 261.37Z" fill="white"/>
<path id="l" d="M529.72 8.80005H612.4V310.89H529.72V8.80005Z" fill="white"/>
<path id="s_2" d="M768.53 236.82H849.49C849.49 250.6 859.39 260.07 874.46 260.07C887.38 260.07 895.13 254.04 895.13 244.14C895.13 233.38 882.64 226.06 852.5 220.03C795.66 209.26 770.68 186.87 770.68 148.12C770.68 102.05 805.99 76.6401 871.01 76.6401C936.03 76.6401 970.05 103.77 973.06 154.15H894.69C893.83 140.37 885.22 132.62 870.15 132.62C858.09 132.62 849.91 138.22 849.91 148.12C849.91 159.32 859.81 164.92 894.26 171.37C949.81 182.13 976.5 205.82 976.5 244.57C976.5 290.21 938.18 317.34 873.59 317.34C809 317.34 768.52 285.48 768.52 236.82H768.53Z" fill="white"/>
<path id="c_4" d="M993.82 196.78C993.82 126.59 1047.22 76.6401 1123.43 76.6401C1190.61 76.6401 1240.55 114.96 1250.46 174.39H1172.95C1163.48 155.87 1145.82 145.11 1124.29 145.11C1095.01 145.11 1074.77 166.21 1074.77 196.78C1074.77 227.35 1095.01 248.88 1124.29 248.88C1147.54 248.88 1166.06 235.96 1174.24 215.29H1252.61C1241.84 277.73 1191.89 317.34 1123.43 317.34C1046.78 317.34 993.82 267.82 993.82 196.77V196.78Z" fill="white"/>
<g id="i_2">
<path id="Vector" d="M695.25 0C724.1 0 744.77 19.38 744.77 47.8C744.77 76.22 724.1 96.03 695.25 96.03C666.4 96.03 645.73 76.22 645.73 47.8C645.73 19.38 666.4 0 695.25 0Z" fill="#ED0656"/>
<path id="Vector_2" d="M695.25 120.81C680.06 120.81 665.81 116.8 653.91 109.35V310.89H736.59V109.35C724.69 116.8 710.44 120.81 695.25 120.81Z" fill="white"/>
</g>
<path id="o_4" d="M1264.11 199.31C1264.11 125.53 1319.99 76.6401 1402.93 76.6401C1485.87 76.6401 1541.76 125.53 1541.76 199.31C1541.76 273.09 1486.31 321.98 1402.93 321.98C1319.55 321.98 1264.11 273.09 1264.11 199.31ZM1402.93 241.22C1427.38 241.22 1444.84 224.2 1444.84 199.31C1444.84 174.42 1427.37 156.97 1402.93 156.97C1378.49 156.97 1361.02 173.99 1361.02 199.31C1361.02 224.63 1378.48 241.22 1402.93 241.22Z" fill="white"/>
</g>
</g>
</g>
</svg>
